<?xml version="1.0" encoding="UTF-8" standalone="no"?>
<svg width="24px" height="24px" viewBox="0 0 24 24" version="1.1" xmlns="http://www.w3.org/2000/svg" xmlns:xlink="http://www.w3.org/1999/xlink">
    <!-- Generator: Sketch 50.2 (55047) - http://www.bohemiancoding.com/sketch -->
    <title>view_hierarchy</title>
    <desc>Created with Sketch.</desc>
    <defs>
        <path d="M4,19 L9,19 L9,14 L4,14 L4,19 Z M10,19 L15,19 L15,14 L10,14 L10,19 Z M16,19 L21,19 L21,14 L16,14 L16,19 Z M19,12 L19,14 L18,14 L18,12 L13,12 L13,14 L12,14 L12,12 L7,12 L7,14 L6,14 L6,11 L7,11 L12,11 L12,9 L10,9 L10,4 L15,4 L15,9 L13,9 L13,11 L19,11 L19,12 Z" id="path-1"></path>
    </defs>
    <g id="view_hierarchy" stroke="none" stroke-width="1" fill="none" fill-rule="evenodd">
        <mask id="mask-2" fill="white">
            <use xlink:href="#path-1"></use>
        </mask>
        <use fill="currentColor" class="icon-use" fill-rule="nonzero" xlink:href="#path-1"></use>
    </g>
</svg>
